<?xml version="1.0" encoding="utf-8"?>
<!-- Generator: Adobe Illustrator 21.0.0, SVG Export Plug-In . SVG Version: 6.00 Build 0)  -->
<svg version="1.1" id="Layer_1" xmlns="http://www.w3.org/2000/svg" xmlns:xlink="http://www.w3.org/1999/xlink" x="0px" y="0px"
	 viewBox="0 0 60 32.8" style="enable-background:new 0 0 60 32.8;" xml:space="preserve">
<style type="text/css">
	.st0{fill:#FF7B73;}
	.st1{fill:#FFFFFF;}
	.st2{fill:none;stroke:#FFFFFF;stroke-linecap:round;stroke-linejoin:round;stroke-miterlimit:10;}
	.st3{fill:none;}
	.st4{fill-rule:evenodd;clip-rule:evenodd;fill:#0071B9;}
	.st5{fill:#0071B9;}
	.st6{fill-rule:evenodd;clip-rule:evenodd;fill:#FFBE00;}
	.st7{fill:#FFBE00;}
	.st8{fill:none;stroke:#FFFFFF;stroke-width:0.75;stroke-linejoin:round;stroke-miterlimit:10;}
	.st9{fill-rule:evenodd;clip-rule:evenodd;fill:#FFA01C;}
	.st10{fill:#FFA01C;}
	.st11{enable-background:new    ;}
	.st12{clip-path:url(#SVGID_2_);}
	.st13{clip-path:url(#SVGID_6_);}
	.st14{fill:none;stroke:#5EBFE2;stroke-miterlimit:10;}
	.st15{clip-path:url(#SVGID_10_);}
	.st16{clip-path:url(#SVGID_12_);fill:#5EBD5E;}
	.st17{fill:none;stroke:#FFFFFF;stroke-width:2;stroke-linecap:round;stroke-miterlimit:10;}
	.st18{fill:none;stroke:#FF7B73;stroke-linecap:round;stroke-miterlimit:10;}
	.st19{fill:none;stroke:#FFFFFF;stroke-width:0.75;stroke-linecap:round;stroke-miterlimit:10;}
	.st20{fill:#333333;}
	.st21{fill-rule:evenodd;clip-rule:evenodd;fill:#333333;}
</style>
<g>
	<defs>
		<circle id="SVGID_9_" cx="-258.2" cy="-93.5" r="14"/>
	</defs>
	<clipPath id="SVGID_2_">
		<use xlink:href="#SVGID_9_"  style="overflow:visible;"/>
	</clipPath>
	<g class="st12">
		<defs>
			<rect id="SVGID_11_" x="-1091.2" y="-663.5" width="1280" height="800"/>
		</defs>
		<clipPath id="SVGID_4_">
			<use xlink:href="#SVGID_11_"  style="overflow:visible;"/>
		</clipPath>
	</g>
</g>
<g>
	<g>
		<path class="st1" d="M24.8,17.9c-0.4,0.3-0.6,0.6-0.6,1.1c0,0.3,0.1,0.6,0.3,0.8c0.2,0.2,0.5,0.3,0.8,0.3c0.1,0,0.3,0,0.4-0.1l0,0
			c0.4-0.1,0.8-0.3,1.2-0.5l0,0c0,0,0,0,0,0c0,0,0,0,0,0l0,0v-2.6l0,0C25.9,17.3,25.2,17.7,24.8,17.9z"/>
		<path class="st1" d="M59.7,7.4c-0.1-0.9-0.3-1.6-0.5-2.2c-0.2-0.6-0.5-1.1-0.9-1.5c-0.3-0.4-0.7-0.7-1.2-1c-0.5-0.3-1.2-0.6-2-0.8
			c-1.5-0.4-3.4-0.7-6-1c-2-0.2-4.3-0.4-6.8-0.6C39.6,0.1,33.5,0,30.1,0c-3.4,0-9.6,0.1-12.3,0.2c-2.5,0.1-4.8,0.3-6.8,0.6
			c-2.6,0.3-4.5,0.6-6,1C4.1,2,3.4,2.3,2.9,2.6C2.4,2.9,2,3.2,1.7,3.6C1.3,4.1,1.1,4.6,0.8,5.2C0.6,5.8,0.4,6.5,0.3,7.4
			C0,9.2,0,12.1,0,14.6c0,2.5,0,5.3,0.3,7.2c0.1,0.9,0.3,1.6,0.5,2.2c0.2,0.6,0.5,1.1,0.9,1.5c0.3,0.4,0.7,0.7,1.2,1
			c0.5,0.3,1.2,0.6,2,0.8c1.5,0.4,3.4,0.7,6,1c2,0.2,4.3,0.4,6.8,0.6c2.7,0.1,8.9,0.2,12.3,0.2c3.4,0,9.5-0.1,12.2-0.2
			c1,0,2-0.1,2.9-0.2l1-0.1l0.9,0.5l6.3,3.7v-2.6v-2.3l2.2-0.7c0.7-0.2,1.2-0.5,1.7-0.8c0.4-0.3,0.8-0.6,1.1-0.9
			c0.4-0.4,0.6-0.9,0.9-1.5c0.2-0.6,0.4-1.3,0.5-2.2c0.3-1.9,0.3-4.7,0.3-7.2C60,12.1,60,9.2,59.7,7.4z M8.5,6.7
			c0.9,0,1.6,0.7,1.6,1.6S9.4,9.9,8.5,9.9c-0.9,0-1.6-0.7-1.6-1.6S7.6,6.7,8.5,6.7z M10.1,20.7c0,0.9-0.7,1.6-1.6,1.6
			c-0.9,0-1.6-0.7-1.6-1.6v-7.6c0-0.9,0.7-1.6,1.6-1.6c0.9,0,1.6,0.7,1.6,1.6V20.7z M17.3,19.7c0.2,0,0.4-0.1,0.6-0.2l0,0
			c0.2-0.1,0.4-0.2,0.7-0.2c0.7,0,1.2,0.5,1.2,1.2c0,0.4-0.2,0.8-0.6,1l0,0c-0.8,0.5-1.8,0.8-2.8,0.8c-0.9,0-1.8-0.4-2.4-1
			c-0.6-0.6-1-1.5-1-2.4v-4.8h-0.2c-0.7,0-1.2-0.5-1.2-1.2c0-0.3,0.1-0.5,0.2-0.7l0,0L14,9.1l0,0c0.2-0.3,0.6-0.5,1-0.5
			c0.7,0,1.2,0.5,1.2,1.2v2h2.4c0.7,0,1.2,0.5,1.2,1.2s-0.5,1.2-1.2,1.2h-2.4v4.5C16.2,19.3,16.7,19.7,17.3,19.7z M30.2,22.1h-1.6
			c-0.3,0-0.7-0.1-1-0.3c-0.3-0.2-0.5-0.4-0.6-0.7c-0.8,0.8-1.8,1.2-2.9,1.2h0c-1.6,0-2.9-1.3-2.9-2.9c0-1.1,0.6-2,1.5-2.5l0,0l0,0
			l0,0h0c0.5-0.3,1.6-0.7,2.5-1c0.9-0.3,1.7-0.6,1.8-0.6v-1c0-0.7-0.5-1.2-1.2-1.2c-0.4,0-0.8,0.2-1,0.6c0,0,0,0,0,0c0,0,0,0,0,0
			c-0.1,0.2-0.1,0.3-0.2,0.5l0,0c-0.1,0.3-0.3,0.5-0.5,0.7c-0.3,0.2-0.6,0.3-0.9,0.3c-0.8,0-1.5-0.7-1.5-1.5v0v0v0v0
			c0-0.4,0.1-0.7,0.4-1c0.2-0.3,0.6-0.5,1-0.7c0.5-0.2,1.4-0.5,2.9-0.5c1.4,0,2.4,0.3,3,0.8c0.8,0.7,1.3,1.8,1.3,3.5v3.8
			c0,0.3,0.2,0.5,0.4,0.6h0c0.4,0.2,0.6,0.5,0.6,0.9C31.2,21.7,30.8,22.1,30.2,22.1z M35.8,20.7c0,0.9-0.7,1.6-1.6,1.6
			c-0.9,0-1.6-0.7-1.6-1.6V8.3c0-0.9,0.7-1.6,1.6-1.6c0.9,0,1.6,0.7,1.6,1.6V20.7z M46.6,22.3c-0.5,0-0.9-0.2-1.3-0.6v0l-3.9-4.8
			v3.8c0,0.9-0.7,1.6-1.6,1.6s-1.6-0.7-1.6-1.6V8.3c0-0.9,0.7-1.6,1.6-1.6s1.6,0.7,1.6,1.6v8.6l3.9-4.8l0,0c0.3-0.4,0.8-0.6,1.3-0.6
			c0.9,0,1.6,0.7,1.6,1.6c0,0.4-0.1,0.7-0.4,1v0l-2.3,2.8l2.3,2.8l0,0c0.2,0.3,0.4,0.6,0.4,1C48.2,21.6,47.5,22.3,46.6,22.3z
			 M51.7,6.7c0.9,0,1.6,0.7,1.6,1.6s-0.7,1.6-1.6,1.6s-1.6-0.7-1.6-1.6S50.8,6.7,51.7,6.7z M53.3,20.7c0,0.9-0.7,1.6-1.6,1.6
			c-0.9,0-1.6-0.7-1.6-1.6v-7.6c0-0.9,0.7-1.6,1.6-1.6c0.9,0,1.6,0.7,1.6,1.6V20.7z"/>
	</g>
</g>
</svg>
